<mxfile host="app.diagrams.net" modified="2023-10-24T03:10:05.341Z" agent="Mozilla/5.0 (Macintosh; Intel Mac OS X 10_15_7) AppleWebKit/537.36 (KHTML, like Gecko) Chrome/117.0.0.0 Safari/537.36" version="22.0.6" etag="ycqTuGa24xnfKk2dCEzK" type="github">
  <diagram name="第 1 页" id="Llod9EvBODx-6c_E42_-">
    <mxGraphModel>
      <root>
        <mxCell id="0" />
        <mxCell id="1" parent="0" />
      </root>
    </mxGraphModel>
  </diagram>
</mxfile>
